<svg xmlns="http://www.w3.org/2000/svg" xmlns:xlink="http://www.w3.org/1999/xlink" fill="none" version="1.1" width="16" height="16" viewBox="0 0 16 16"><g><g><path d="M9.500001035156249,1.5013427734375L6.50000103515625,1.5013427734375L6.50000103515625,2.5013427734375L9.500001035156249,2.5013427734375L9.500001035156249,1.5013427734375ZM11.00000103515625,3.5000027734375L5.0000010351562505,3.5000027734375L5.0000010351562505,4.5000027734375L11.00000103515625,4.5000027734375L11.00000103515625,3.5000027734375ZM12.00006103515625,14.4986427734375C13.10466103515625,14.4986427734375,14.00006103515625,13.6032427734375,14.00006103515625,12.4986427734375L14.00006103515625,7.4986527734375C14.00006103515625,6.3940927734375,13.10466103515625,5.498652773437501,12.00006103515625,5.498652773437501L4.00006103515625,5.498652773437501C2.89549203515625,5.498652773437501,2.00006103515625,6.3940927734375,2.00006103515625,7.4986527734375L2.00006103515625,12.4986427734375C2.00006103515625,13.6032427734375,2.89549203515625,14.4986427734375,4.00006103515625,14.4986427734375L12.00006103515625,14.4986427734375ZM4.00006103515625,6.4986527734375L12.00006103515625,6.4986527734375Q12.15536103515625,6.4986527734375,12.29366103515625,6.5398427734375Q12.52406103515625,6.6084927734375,12.70716103515625,6.7915527734375Q12.82676103515625,6.9111027734375,12.89746103515625,7.0508527734375Q13.00006103515625,7.2535027734375,13.00006103515625,7.4986527734375L13.00006103515625,12.4986427734375Q13.00006103515625,12.7316427734375,12.90736103515625,12.9262427734375Q12.83526103515625,13.0776427734375,12.70716103515625,13.2057427734375Q12.54246103515625,13.3705427734375,12.33926103515625,13.4426427734375Q12.18126103515625,13.4986427734375,12.00006103515625,13.4986427734375L4.00006103515625,13.4986427734375Q3.5858510351562503,13.4986427734375,3.29295103515625,13.2057427734375Q3.18097103515625,13.0937427734375,3.11180103515625,12.9640427734375Q3.00006103515625,12.7545427734375,3.00006103515625,12.4986427734375L3.00006103515625,7.4986527734375Q3.00006103515625,7.3433227734375,3.0412510351562503,7.2050527734375Q3.10990103515625,6.9746027734375,3.29295103515625,6.7915527734375Q3.5858510351562503,6.4986527734375,4.00006103515625,6.4986527734375ZM10.12140103515625,10.3773227734375L8.00008103515625,12.4986427734375L5.87876103515625,10.3773227734375L7.50006103515625,10.3773227734375L7.50006103515625,7.9985327734375L8.50006103515625,7.9985327734375L8.50006103515625,10.3773227734375L10.12140103515625,10.3773227734375Z" fill="#666666" fill-opacity="1"/></g></g></svg>