<svg xmlns="http://www.w3.org/2000/svg" xmlns:xlink="http://www.w3.org/1999/xlink" fill="none" version="1.1" width="16" height="16" viewBox="0 0 16 16"><g><g><path d="M2,7.631345703125L2,11.326785703125C2,12.431355703125,2.895431,13.326795703125,4,13.326795703125L12,13.326795703125C13.0961,13.326795703125,13.9862,12.445085703125,13.9998,11.352265703125Q14,11.339545703125,14,11.326785703125L14,7.631345703125L13,7.631345703125L13,11.326785703125Q12.9999,11.740805703125,12.7071,12.033565703125Q12.4142,12.326415703125,12,12.326415703125L11,12.326785703125L5,12.326415703125L4,12.326415703125Q3.5858,12.326465703125,3.29291,12.033565703125Q3.00013,11.740755703125,3,11.326785703125L3,7.631345703125L2,7.631345703125ZM8.000029999999999,9.677975703125L10.12134,7.556635703125L8.5,7.556635703125L8.5,2.673095703125L7.5,2.673095703125L7.5,7.556635703125L5.878690000000001,7.556635703125L8.000029999999999,9.677975703125Z" fill="#FFFFFF" fill-opacity="1"/></g></g></svg>