<svg xmlns="http://www.w3.org/2000/svg" xmlns:xlink="http://www.w3.org/1999/xlink" fill="none" version="1.1" width="24" height="24" viewBox="0 0 24 24"><g><g><path d="M6.508056640625,9.02416275390625C6.508056640625,9.02416275390625,9.032646640625,9.02416275390625,9.032646640625,9.02416275390625C9.032646640625,9.02416275390625,9.032646640625,6.49957275390625,9.032646640625,6.49957275390625C9.032646640625,6.49957275390625,10.294946640625,6.49957275390625,10.294946640625,6.49957275390625C10.294946640625,6.49957275390625,10.294946640625,9.78646275390625,10.294946640625,9.78646275390625C10.294946640625,10.06260275390625,10.071086640625,10.28646275390625,9.794946640625,10.28646275390625C9.794946640625,10.28646275390625,6.508056640625,10.28646275390625,6.508056640625,10.28646275390625C6.508056640625,10.28646275390625,6.508056640625,9.02416275390625,6.508056640625,9.02416275390625ZM9.032646640625,14.97583275390625C9.032646640625,14.97583275390625,6.508056640625,14.97583275390625,6.508056640625,14.97583275390625C6.508056640625,14.97583275390625,6.508056640625,13.71354275390625,6.508056640625,13.71354275390625C6.508056640625,13.71354275390625,9.794946640625,13.71354275390625,9.794946640625,13.71354275390625C10.071086640625,13.71354275390625,10.294946640625,13.93740275390625,10.294946640625,14.21354275390625C10.294946640625,14.21354275390625,10.294946640625,17.50047275390625,10.294946640625,17.50047275390625C10.294946640625,17.50047275390625,9.032646640625,17.50047275390625,9.032646640625,17.50047275390625C9.032646640625,17.50047275390625,9.032646640625,14.97583275390625,9.032646640625,14.97583275390625ZM14.967396640625,9.02416275390625C14.967396640625,9.02416275390625,17.491956640625,9.02416275390625,17.491956640625,9.02416275390625C17.491956640625,9.02416275390625,17.491956640625,10.28646275390625,17.491956640625,10.28646275390625C17.491956640625,10.28646275390625,14.205096640625001,10.28646275390625,14.205096640625001,10.28646275390625C13.928956640625,10.28646275390625,13.705096640625001,10.06260275390625,13.705096640625001,9.78646275390625C13.705096640625001,9.78646275390625,13.705096640625001,6.49957275390625,13.705096640625001,6.49957275390625C13.705096640625001,6.49957275390625,14.967396640625,6.49957275390625,14.967396640625,6.49957275390625C14.967396640625,6.49957275390625,14.967396640625,9.02416275390625,14.967396640625,9.02416275390625ZM14.967396640625,14.97583275390625C14.967396640625,14.97583275390625,17.491956640625,14.97583275390625,17.491956640625,14.97583275390625C17.491956640625,14.97583275390625,17.491956640625,13.71354275390625,17.491956640625,13.71354275390625C17.491956640625,13.71354275390625,14.205096640625001,13.71354275390625,14.205096640625001,13.71354275390625C13.928956640625,13.71354275390625,13.705096640625001,13.93740275390625,13.705096640625001,14.21354275390625C13.705096640625001,14.21354275390625,13.705096640625001,17.50047275390625,13.705096640625001,17.50047275390625C13.705096640625001,17.50047275390625,14.967396640625,17.50047275390625,14.967396640625,17.50047275390625C14.967396640625,17.50047275390625,14.967396640625,14.97583275390625,14.967396640625,14.97583275390625Z" fill="#666666" fill-opacity="1"/></g></g></svg>