<svg xmlns="http://www.w3.org/2000/svg" xmlns:xlink="http://www.w3.org/1999/xlink" fill="none" version="1.1" width="24" height="24" viewBox="0 0 24 24"><g><g><path d="M16.23771,6.5C16.23771,6.5,17.5,6.5,17.5,6.5C17.5,6.5,17.5,10.28689,17.5,10.28689C17.5,10.28689,16.23771,10.28689,16.23771,10.28689C16.23771,10.28689,16.23771,7.7623,16.23771,7.7623C16.23771,7.7623,13.71311,7.7623,13.71311,7.7623C13.71311,7.7623,13.71311,6.5,13.71311,6.5C13.71311,6.5,16.23771,6.5,16.23771,6.5ZM7.7623,6.5C7.7623,6.5,10.28689,6.5,10.28689,6.5C10.28689,6.5,10.28689,7.7623,10.28689,7.7623C10.28689,7.7623,7.7623,7.7623,7.7623,7.7623C7.7623,7.7623,7.7623,10.28689,7.7623,10.28689C7.7623,10.28689,6.5,10.28689,6.5,10.28689C6.5,10.28689,6.5,6.5,6.5,6.5C6.5,6.5,7.7623,6.5,7.7623,6.5ZM16.23771,16.23771C16.23771,16.23771,16.23771,13.71312,16.23771,13.71312C16.23771,13.71312,17.5,13.71312,17.5,13.71312C17.5,13.71312,17.5,17.5,17.5,17.5C17.5,17.5,13.71311,17.5,13.71311,17.5C13.71311,17.5,13.71311,16.23771,13.71311,16.23771C13.71311,16.23771,16.23771,16.23771,16.23771,16.23771ZM7.7623,16.23771C7.7623,16.23771,10.28689,16.23771,10.28689,16.23771C10.28689,16.23771,10.28689,17.5,10.28689,17.5C10.28689,17.5,6.5,17.5,6.5,17.5C6.5,17.5,6.5,13.71312,6.5,13.71312C6.5,13.71312,7.7623,13.71312,7.7623,13.71312C7.7623,13.71312,7.7623,16.23771,7.7623,16.23771Z" fill="#666666" fill-opacity="1"/></g></g></svg>